<svg xmlns="http://www.w3.org/2000/svg" version="1.1" xmlns:xlink="http://www.w3.org/1999/xlink" xmlns:svgjs="http://svgjs.dev/svgjs" width="1500" height="1500" viewBox="0 0 1500 1500"><rect width="1500" height="1500" fill="#000000"></rect><g transform="matrix(0.6666666666666666,0,0,0.6666666666666666,249.39393939393938,435.99032258064517)"><svg viewBox="0 0 396 248" data-background-color="#14293a" preserveAspectRatio="xMidYMid meet" height="939" width="1500" xmlns="http://www.w3.org/2000/svg" xmlns:xlink="http://www.w3.org/1999/xlink"><g id="tight-bounds" transform="matrix(1,0,0,1,0.2400000000000091,0.4000000000000057)"><svg viewBox="0 0 395.52 247.2" height="247.2" width="395.52"><g><svg></svg></g><g><svg viewBox="0 0 395.52 247.2" height="247.2" width="395.52"><g transform="matrix(1,0,0,1,75.54432,104.4388889929802)"><svg viewBox="0 0 244.43135999999998 38.3222220140396" height="38.3222220140396" width="244.43135999999998"><g><svg viewBox="0 0 307.3120665582577 48.18072951948092" height="38.3222220140396" width="244.43135999999998"><g><rect width="2.7440704036471946" height="48.18072951948092" x="52.953205778570755" y="0" fill="#ffffff" opacity="1" stroke-width="0" stroke="transparent" fill-opacity="1" class="rect-yte-0" data-fill-palette-color="primary" rx="1%" id="yte-0" data-palette-color="#e9e4de"></rect></g><g transform="matrix(1,0,0,1,62.88070655825772,0.11985256099373132)"><svg viewBox="0 0 244.43135999999998 47.94102439749346" height="47.94102439749346" width="244.43135999999998"><g id="textblocktransform"><svg viewBox="0 0 244.43135999999998 47.94102439749346" height="47.94102439749346" width="244.43135999999998" id="textblock"><g><svg viewBox="0 0 244.43135999999998 30.428465307950727" height="30.428465307950727" width="244.43135999999998"><g transform="matrix(1,0,0,1,0,0)"><svg width="244.43135999999998" viewBox="3.86 -32.03 261.59999999999997 32.57" height="30.428465307950727" data-palette-color="#e9e4de"><path d="M23.02-29.52Q24.02-29.52 24.44-29.15 24.85-28.78 24.85-27.93L24.85-27.93 24.85-22.31Q24.85-21.46 24.44-21.09 24.02-20.73 23.02-20.73L23.02-20.73Q22.09-20.73 21.75-21.36L21.75-21.36Q20.58-23.58 18.46-24.74 16.33-25.9 13.62-25.9L13.62-25.9Q10.94-25.9 9.46-24.66 7.98-23.41 7.98-21.31L7.98-21.31Q7.98-20.31 8.5-19.63 9.01-18.95 9.96-18.46L9.96-18.46Q10.82-18.02 11.96-17.74 13.11-17.46 15.04-17.09L15.04-17.09Q17.14-16.67 18.37-16.39 19.6-16.11 20.8-15.63L20.8-15.63Q23.24-14.62 24.62-12.83 26-11.04 26-7.98L26-7.98Q26-5.44 24.8-3.53 23.61-1.61 21.28-0.54 18.95 0.54 15.67 0.54L15.67 0.54Q13.23 0.54 11.15-0.35 9.06-1.25 7.52-2.95L7.52-2.95 7.52-1.05Q7.52-0.2 7.1 0.17 6.69 0.54 5.69 0.54L5.69 0.54Q4.69 0.54 4.27 0.17 3.86-0.2 3.86-1.05L3.86-1.05 3.86-8.37Q3.86-9.23 4.27-9.59 4.69-9.96 5.69-9.96L5.69-9.96Q6.74-9.96 7.1-8.94L7.1-8.94Q8.11-6.1 10.29-4.59 12.48-3.08 15.67-3.08L15.67-3.08Q18.8-3.08 20.47-4.42 22.14-5.76 22.14-7.98L22.14-7.98Q22.14-9.52 21.37-10.49 20.61-11.45 19.14-12.08L19.14-12.08Q18.21-12.5 17.11-12.76 16.02-13.01 14.11-13.4L14.11-13.4Q12.11-13.79 10.75-14.14 9.4-14.48 8.25-14.99L8.25-14.99Q6.3-15.87 5.21-17.37 4.13-18.87 4.13-21.31L4.13-21.31Q4.13-23.83 5.33-25.68 6.54-27.54 8.7-28.53 10.86-29.52 13.62-29.52L13.62-29.52Q15.77-29.52 17.77-28.69 19.78-27.86 21.19-26.44L21.19-26.44 21.19-27.93Q21.19-28.78 21.61-29.15 22.02-29.52 23.02-29.52L23.02-29.52ZM56.71-28.98Q57.54-28.98 57.9-28.6 58.25-28.22 58.25-27.32L58.25-27.32Q58.25-26.42 57.9-26.04 57.54-25.66 56.71-25.66L56.71-25.66 51.8-25.66 51.8-8.13Q51.8-3.86 49.31-1.66 46.82 0.54 42.04 0.54L42.04 0.54Q39.26 0.54 37-0.45 34.74-1.44 33.18-3.15L33.18-3.15Q32.79-3.61 32.79-4.39L32.79-4.39 32.79-11.35Q32.79-12.21 33.2-12.57 33.62-12.94 34.62-12.94L34.62-12.94Q35.62-12.94 36.03-12.57 36.45-12.21 36.45-11.35L36.45-11.35 36.45-4.91Q38.5-3.08 42.06-3.08L42.06-3.08Q45.26-3.08 46.7-4.49 48.14-5.91 48.14-8.86L48.14-8.86 48.14-25.66 39.82-25.66Q38.99-25.66 38.63-26.04 38.28-26.42 38.28-27.32L38.28-27.32Q38.28-28.22 38.63-28.6 38.99-28.98 39.82-28.98L39.82-28.98 56.71-28.98ZM114.32-29.52Q115.32-29.52 115.74-29.15 116.15-28.78 116.15-27.93L116.15-27.93 116.15-19.87Q116.15-19.02 115.74-18.65 115.32-18.29 114.32-18.29L114.32-18.29Q113.32-18.29 112.91-18.65 112.49-19.02 112.49-19.87L112.49-19.87Q112.49-21.53 111.75-22.9 111-24.27 109.47-25.09 107.93-25.9 105.66-25.9L105.66-25.9Q103.02-25.9 100.98-24.51 98.94-23.12 97.81-20.53 96.67-17.94 96.67-14.48L96.67-14.48Q96.67-11.01 97.75-8.44 98.82-5.86 100.8-4.47 102.78-3.08 105.41-3.08L105.41-3.08Q107.83-3.08 110.03-3.78 112.22-4.49 113.98-5.83L113.98-5.83Q114.4-6.18 114.89-6.18L114.89-6.18Q115.62-6.18 116.18-5.22L116.18-5.22Q116.62-4.49 116.62-3.93L116.62-3.93Q116.62-3.2 115.86-2.66L115.86-2.66Q113.59-1.07 110.92-0.27 108.24 0.54 105.41 0.54L105.41 0.54Q101.6 0.54 98.76-1.33 95.92-3.2 94.37-6.59 92.81-9.99 92.81-14.48L92.81-14.48Q92.81-18.95 94.4-22.35 95.99-25.76 98.86-27.64 101.73-29.52 105.41-29.52L105.41-29.52Q107.71-29.52 109.49-28.74 111.27-27.95 112.49-26.51L112.49-26.51 112.49-27.93Q112.49-28.78 112.91-29.15 113.32-29.52 114.32-29.52L114.32-29.52ZM134.9-23.1Q138.25-23.1 140.93-21.58 143.62-20.07 145.14-17.37 146.67-14.67 146.67-11.28L146.67-11.28Q146.67-7.89 145.14-5.19 143.62-2.49 140.93-0.98 138.25 0.54 134.9 0.54L134.9 0.54Q131.56 0.54 128.87-0.98 126.19-2.49 124.66-5.19 123.13-7.89 123.13-11.28L123.13-11.28Q123.13-14.67 124.66-17.37 126.19-20.07 128.87-21.58 131.56-23.1 134.9-23.1L134.9-23.1ZM134.9-19.48Q132.53-19.48 130.74-18.44 128.95-17.41 127.97-15.54 126.99-13.67 126.99-11.28L126.99-11.28Q126.99-8.89 127.97-7.02 128.95-5.15 130.74-4.11 132.53-3.08 134.9-3.08L134.9-3.08Q137.27-3.08 139.06-4.11 140.86-5.15 141.84-7.02 142.81-8.89 142.81-11.28L142.81-11.28Q142.81-13.67 141.84-15.54 140.86-17.41 139.06-18.44 137.27-19.48 134.9-19.48L134.9-19.48ZM173.4-32.03Q174.23-32.03 174.58-31.65 174.94-31.27 174.94-30.37L174.94-30.37 174.94-3.32 176.94-3.32Q177.77-3.32 178.12-2.94 178.48-2.56 178.48-1.66L178.48-1.66Q178.48-0.76 178.12-0.38 177.77 0 176.94 0L176.94 0 173.06 0Q172.23 0 171.87-0.38 171.52-0.76 171.52-1.66L171.52-1.66 171.52-3.61Q169.98-1.61 167.96-0.54 165.93 0.54 163.54 0.54L163.54 0.54Q160.51 0.54 158.12-0.89 155.72-2.32 154.36-4.99 152.99-7.67 152.99-11.28L152.99-11.28Q152.99-14.89 154.36-17.57 155.72-20.24 158.12-21.67 160.51-23.1 163.54-23.1L163.54-23.1Q168.13-23.1 171.28-19.07L171.28-19.07 171.28-28.71 167.32-28.71Q166.49-28.71 166.14-29.09 165.78-29.47 165.78-30.37L165.78-30.37Q165.78-31.27 166.14-31.65 166.49-32.03 167.32-32.03L167.32-32.03 173.4-32.03ZM163.78-19.48Q161.61-19.48 160.05-18.44 158.48-17.41 157.67-15.55 156.85-13.7 156.85-11.28L156.85-11.28Q156.85-8.86 157.67-7.01 158.48-5.15 160.05-4.11 161.61-3.08 163.78-3.08L163.78-3.08Q165.95-3.08 167.65-4.05 169.35-5.03 170.31-6.88 171.28-8.74 171.28-11.28L171.28-11.28Q171.28-13.82 170.31-15.67 169.35-17.53 167.65-18.51 165.95-19.48 163.78-19.48L163.78-19.48ZM195.08-23.1Q198.62-23.1 201.12-21.67 203.62-20.24 204.97-17.71 206.31-15.19 206.5-11.89L206.5-11.89Q206.5-11.06 206.15-10.72 205.8-10.38 204.97-10.38L204.97-10.38 187.29-10.38Q187.46-6.74 189.45-4.87 191.44-3 195.08-3L195.08-3Q197.32-3 199.52-3.58 201.72-4.15 203.38-5.1L203.38-5.1Q203.79-5.32 204.14-5.32L204.14-5.32Q204.99-5.32 205.53-4.03L205.53-4.03Q205.75-3.52 205.75-3.1L205.75-3.1Q205.75-2.12 204.67-1.59L204.67-1.59Q202.79-0.63 200.23-0.05 197.67 0.54 195.08 0.54L195.08 0.54Q191.39 0.54 188.78-0.88 186.17-2.29 184.8-4.96 183.43-7.62 183.43-11.28L183.43-11.28Q183.43-14.77 184.92-17.46 186.41-20.14 189.05-21.62 191.68-23.1 195.08-23.1L195.08-23.1ZM195.08-19.56Q192.07-19.56 190.11-18.03 188.14-16.5 187.53-13.79L187.53-13.79 202.45-13.79Q201.94-16.6 200.09-18.08 198.25-19.56 195.08-19.56L195.08-19.56ZM232.31-23.1Q234.21-23.1 235.87-22.12L235.87-22.12Q236.85-21.53 236.85-20.61L236.85-20.61Q236.85-20.17 236.63-19.58L236.63-19.58Q236.12-18.19 235.21-18.19L235.21-18.19Q234.85-18.19 234.53-18.38L234.53-18.38Q233.33-19.04 231.96-19.04L231.96-19.04Q229.77-19.04 227.55-17.52 225.32-15.99 223.9-13.45 222.47-10.91 222.47-8.06L222.47-8.06 222.47-3.32 230.7-3.32Q231.53-3.32 231.88-2.94 232.23-2.56 232.23-1.66L232.23-1.66Q232.23-0.76 231.88-0.38 231.53 0 230.7 0L230.7 0 214.97 0Q214.14 0 213.79-0.38 213.43-0.76 213.43-1.66L213.43-1.66Q213.43-2.56 213.79-2.94 214.14-3.32 214.97-3.32L214.97-3.32 218.81-3.32 218.81-19.24 215.71-19.24Q214.88-19.24 214.52-19.62 214.17-20 214.17-20.9L214.17-20.9Q214.17-21.8 214.52-22.18 214.88-22.56 215.71-22.56L215.71-22.56 220.69-22.56Q221.52-22.56 221.87-22.18 222.22-21.8 222.22-20.9L222.22-20.9 222.22-15.97Q223.4-18.12 225.06-19.73 226.72-21.34 228.6-22.22 230.48-23.1 232.31-23.1L232.31-23.1ZM262.5-23.1Q263.51-23.1 263.92-22.73 264.34-22.36 264.34-21.51L264.34-21.51 264.34-16.87Q264.34-16.02 263.92-15.65 263.51-15.28 262.5-15.28L262.5-15.28Q261.67-15.28 261.33-15.92L261.33-15.92Q260.28-17.92 258.28-18.74 256.28-19.56 253.2-19.56L253.2-19.56Q250.83-19.56 249.5-18.71 248.17-17.87 248.17-16.36L248.17-16.36Q248.17-15.58 248.67-15.09 249.17-14.6 250.15-14.28L250.15-14.28Q250.96-14.01 252.02-13.87 253.08-13.72 254.77-13.55L254.77-13.55Q257.13-13.28 258.59-13.05 260.04-12.82 261.33-12.35L261.33-12.35Q263.29-11.65 264.37-10.3 265.46-8.96 265.46-6.76L265.46-6.76Q265.46-4.57 264.35-2.92 263.24-1.27 261.1-0.37 258.96 0.54 255.99 0.54L255.99 0.54Q253.35 0.54 251.35-0.2 249.35-0.93 247.86-2.42L247.86-2.42 247.86-1.05Q247.86-0.2 247.44 0.17 247.03 0.54 246.02 0.54L246.02 0.54Q245.02 0.54 244.61 0.17 244.19-0.2 244.19-1.05L244.19-1.05 244.19-6.91Q244.19-7.76 244.61-8.13 245.02-8.5 246.02-8.5L246.02-8.5Q246.54-8.5 246.83-8.26 247.12-8.03 247.34-7.5L247.34-7.5Q248.22-5.15 250.27-4.08 252.32-3 255.74-3L255.74-3Q258.57-3 260.09-4.03 261.6-5.05 261.6-6.76L261.6-6.76Q261.6-7.59 261.06-8.13 260.53-8.67 259.53-9.01L259.53-9.01Q258.67-9.28 257.56-9.46 256.45-9.64 254.74-9.81L254.74-9.81Q252.45-10.06 250.91-10.33 249.37-10.6 248.08-11.11L248.08-11.11Q246.29-11.82 245.3-13.07 244.32-14.33 244.32-16.36L244.32-16.36Q244.32-18.48 245.43-20.01 246.54-21.53 248.5-22.31 250.47-23.1 252.96-23.1L252.96-23.1Q255.33-23.1 257.29-22.39 259.26-21.68 260.67-20.41L260.67-20.41 260.67-21.51Q260.67-22.36 261.09-22.73 261.5-23.1 262.5-23.1L262.5-23.1Z" opacity="1" transform="matrix(1,0,0,1,0,0)" fill="#ffffff" class="wordmark-text-0" data-fill-palette-color="primary" id="text-0"></path></svg></g></svg></g><g transform="matrix(1,0,0,1,0,37.611895683990504)"><svg viewBox="0 0 143.50565145599998 10.329128713502953" height="10.329128713502953" width="143.50565145599998"><g transform="matrix(1,0,0,1,0,0)"><svg width="143.50565145599998" viewBox="1.4 -35.95 507.75 36.550000000000004" height="10.329128713502953" data-palette-color="#e9e4de"><path d="M11.4 0L8.9 0 1.4-32.95 3.8-32.95 7.95-13.55Q8.5-10.85 9.08-8.18 9.65-5.5 10.2-2.8L10.2-2.8 10.4-2.8Q11-5.5 11.63-8.18 12.25-10.85 12.95-13.55L12.95-13.55 18.1-32.95 20.45-32.95 25.6-13.55Q26.3-10.85 26.93-8.18 27.55-5.5 28.25-2.8L28.25-2.8 28.45-2.8Q29-5.5 29.53-8.18 30.05-10.85 30.6-13.55L30.6-13.55 34.75-32.95 37-32.95 29.65 0 27.1 0 21.1-22.6Q20.65-24.55 20.2-26.33 19.75-28.1 19.35-30.05L19.35-30.05 19.15-30.05Q18.75-28.1 18.25-26.33 17.75-24.55 17.3-22.6L17.3-22.6 11.4 0ZM51.85 0.6L51.85 0.6Q49.7 0.6 47.75-0.25 45.8-1.1 44.32-2.7 42.85-4.3 41.97-6.63 41.1-8.95 41.1-11.95L41.1-11.95Q41.1-14.95 41.97-17.32 42.85-19.7 44.32-21.3 45.8-22.9 47.75-23.75 49.7-24.6 51.85-24.6L51.85-24.6Q54-24.6 55.97-23.75 57.95-22.9 59.42-21.3 60.9-19.7 61.77-17.32 62.65-14.95 62.65-11.95L62.65-11.95Q62.65-8.95 61.77-6.63 60.9-4.3 59.42-2.7 57.95-1.1 55.97-0.25 54 0.6 51.85 0.6ZM51.85-1.35L51.85-1.35Q53.65-1.35 55.22-2.13 56.8-2.9 57.92-4.3 59.05-5.7 59.7-7.65 60.35-9.6 60.35-11.95L60.35-11.95Q60.35-14.35 59.7-16.3 59.05-18.25 57.92-19.68 56.8-21.1 55.22-21.88 53.65-22.65 51.85-22.65L51.85-22.65Q50.05-22.65 48.5-21.88 46.95-21.1 45.82-19.68 44.7-18.25 44.05-16.3 43.4-14.35 43.4-11.95L43.4-11.95Q43.4-9.6 44.05-7.65 44.7-5.7 45.82-4.3 46.95-2.9 48.5-2.13 50.05-1.35 51.85-1.35ZM72.05 0L69.84 0 69.84-24 71.75-24 71.95-19.55 72.09-19.55Q73.3-21.8 75.02-23.2 76.75-24.6 78.9-24.6L78.9-24.6Q79.59-24.6 80.15-24.5 80.7-24.4 81.3-24.1L81.3-24.1 80.8-22.1Q80.2-22.35 79.75-22.43 79.3-22.5 78.59-22.5L78.59-22.5Q77-22.5 75.22-21.13 73.45-19.75 72.05-16.35L72.05-16.35 72.05 0ZM87.89 0L85.69 0 85.69-35.95 87.89-35.95 87.89-9.45 87.99-9.45 99.84-24 102.39-24 94.59-14.5 103.69 0 101.24 0 93.29-12.85 87.89-6.55 87.89 0ZM127.74 0.6L127.74 0.6Q124.14 0.6 121.34-0.78 118.54-2.15 116.59-4.35L116.59-4.35 118.09-5.95Q119.89-3.9 122.39-2.7 124.89-1.5 127.74-1.5L127.74-1.5Q131.54-1.5 133.74-3.33 135.94-5.15 135.94-8.1L135.94-8.1Q135.94-9.65 135.46-10.73 134.99-11.8 134.19-12.58 133.39-13.35 132.31-13.9 131.24-14.45 130.04-15L130.04-15 125.04-17.25Q123.99-17.7 122.79-18.35 121.59-19 120.61-19.98 119.64-20.95 118.99-22.28 118.34-23.6 118.34-25.45L118.34-25.45Q118.34-27.25 119.06-28.73 119.79-30.2 121.06-31.28 122.34-32.35 124.11-32.95 125.89-33.55 127.94-33.55L127.94-33.55Q130.94-33.55 133.26-32.38 135.59-31.2 137.09-29.6L137.09-29.6 135.79-28.1Q134.34-29.6 132.39-30.53 130.44-31.45 127.94-31.45L127.94-31.45Q124.64-31.45 122.64-29.85 120.64-28.25 120.64-25.55L120.64-25.55Q120.64-24.1 121.19-23.1 121.74-22.1 122.59-21.38 123.44-20.65 124.44-20.13 125.44-19.6 126.34-19.2L126.34-19.2 131.34-17Q132.74-16.4 133.99-15.65 135.24-14.9 136.19-13.9 137.14-12.9 137.71-11.53 138.29-10.15 138.29-8.25L138.29-8.25Q138.29-6.35 137.54-4.73 136.79-3.1 135.41-1.93 134.04-0.75 132.09-0.08 130.14 0.6 127.74 0.6ZM147.14 0L144.94 0 144.94-24 146.84-24 147.03-20.3 147.19-20.3Q148.78-22.15 150.76-23.38 152.74-24.6 154.74-24.6L154.74-24.6Q157.64-24.6 159.19-23.28 160.74-21.95 161.39-19.7L161.39-19.7Q163.49-21.95 165.46-23.28 167.44-24.6 169.54-24.6L169.54-24.6Q176.74-24.6 176.74-15.4L176.74-15.4 176.74 0 174.49 0 174.49-15.1Q174.49-18.95 173.19-20.78 171.89-22.6 169.14-22.6L169.14-22.6Q165.89-22.6 161.94-18.1L161.94-18.1 161.94 0 159.74 0 159.74-15.1Q159.74-18.95 158.44-20.78 157.14-22.6 154.34-22.6L154.34-22.6Q151.09-22.6 147.14-18.1L147.14-18.1 147.14 0ZM190.78 0.6L190.78 0.6Q189.33 0.6 188.08 0.2 186.83-0.2 185.88-1 184.93-1.8 184.38-3.05 183.83-4.3 183.83-6L183.83-6Q183.83-10 187.56-12.08 191.28-14.15 199.33-15.05L199.33-15.05Q199.33-16.4 199.13-17.78 198.93-19.15 198.28-20.23 197.63-21.3 196.53-21.98 195.43-22.65 193.63-22.65L193.63-22.65Q191.23-22.65 189.23-21.7 187.23-20.75 185.98-19.85L185.98-19.85 184.98-21.5Q185.63-21.95 186.56-22.5 187.48-23.05 188.63-23.5 189.78-23.95 191.13-24.28 192.48-24.6 193.93-24.6L193.93-24.6Q196.03-24.6 197.48-23.88 198.93-23.15 199.83-21.9 200.73-20.65 201.13-18.98 201.53-17.3 201.53-15.35L201.53-15.35 201.53 0 199.63 0 199.43-3.1 199.28-3.1Q197.43-1.65 195.31-0.53 193.18 0.6 190.78 0.6ZM191.18-1.3L191.18-1.3Q193.28-1.3 195.18-2.3 197.08-3.3 199.33-5.2L199.33-5.2 199.33-13.35Q195.63-12.9 193.08-12.25 190.53-11.6 188.98-10.7 187.43-9.8 186.76-8.65 186.08-7.5 186.08-6.1L186.08-6.1Q186.08-4.8 186.48-3.9 186.88-3 187.58-2.43 188.28-1.85 189.21-1.58 190.13-1.3 191.18-1.3ZM212.28 0L210.08 0 210.08-24 211.98-24 212.18-19.55 212.33-19.55Q213.53-21.8 215.26-23.2 216.98-24.6 219.13-24.6L219.13-24.6Q219.83-24.6 220.38-24.5 220.93-24.4 221.53-24.1L221.53-24.1 221.03-22.1Q220.43-22.35 219.98-22.43 219.53-22.5 218.83-22.5L218.83-22.5Q217.23-22.5 215.46-21.13 213.68-19.75 212.28-16.35L212.28-16.35 212.28 0ZM232.48 0.6L232.48 0.6Q230.73 0.6 229.58 0.08 228.43-0.45 227.73-1.4 227.03-2.35 226.75-3.7 226.48-5.05 226.48-6.65L226.48-6.65 226.48-22.1 222.73-22.1 222.73-23.8 226.53-24 226.83-30.95 228.73-30.95 228.73-24 235.68-24 235.68-22.1 228.73-22.1 228.73-6.45Q228.73-5.3 228.9-4.38 229.08-3.45 229.53-2.78 229.98-2.1 230.75-1.73 231.53-1.35 232.78-1.35L232.78-1.35Q233.48-1.35 234.3-1.58 235.13-1.8 235.78-2.1L235.78-2.1 236.38-0.3Q235.33 0.1 234.28 0.35 233.23 0.6 232.48 0.6ZM250.07 0.6L250.07 0.6Q247.78 0.6 245.75-0.25 243.72-1.1 242.22-2.73 240.72-4.35 239.85-6.68 238.97-9 238.97-11.95L238.97-11.95Q238.97-14.9 239.85-17.25 240.72-19.6 242.2-21.23 243.68-22.85 245.55-23.73 247.43-24.6 249.43-24.6L249.43-24.6Q253.72-24.6 256.18-21.7 258.63-18.8 258.63-13.5L258.63-13.5Q258.63-13.05 258.63-12.6 258.63-12.15 258.52-11.7L258.52-11.7 241.22-11.7Q241.28-9.45 241.93-7.53 242.57-5.6 243.75-4.23 244.93-2.85 246.57-2.08 248.22-1.3 250.28-1.3L250.28-1.3Q252.22-1.3 253.8-1.88 255.38-2.45 256.73-3.45L256.73-3.45 257.63-1.75Q256.18-0.9 254.45-0.15 252.72 0.6 250.07 0.6ZM241.22-13.5L241.22-13.5 256.52-13.5Q256.52-18.15 254.63-20.43 252.72-22.7 249.47-22.7L249.47-22.7Q247.93-22.7 246.53-22.08 245.13-21.45 244-20.25 242.88-19.05 242.15-17.35 241.43-15.65 241.22-13.5ZM267.32 0L265.12 0 265.12-24 267.02-24 267.22-19.55 267.37-19.55Q268.57-21.8 270.3-23.2 272.02-24.6 274.17-24.6L274.17-24.6Q274.87-24.6 275.42-24.5 275.97-24.4 276.57-24.1L276.57-24.1 276.07-22.1Q275.47-22.35 275.02-22.43 274.57-22.5 273.87-22.5L273.87-22.5Q272.27-22.5 270.5-21.13 268.72-19.75 267.32-16.35L267.32-16.35 267.32 0ZM293.42 0L291.22 0 291.22-32.95 293.62-32.95 307.52-9.7 311.22-3.15 311.42-3.15Q311.32-5.55 311.22-7.95 311.12-10.35 311.12-12.75L311.12-12.75 311.12-32.95 313.32-32.95 313.32 0 310.92 0 297.02-23.25 293.32-29.8 293.12-29.8Q293.22-27.4 293.32-25.13 293.42-22.85 293.42-20.45L293.42-20.45 293.42 0ZM331.52 0.6L331.52 0.6Q329.37 0.6 327.42-0.25 325.47-1.1 323.99-2.7 322.52-4.3 321.64-6.63 320.77-8.95 320.77-11.95L320.77-11.95Q320.77-14.95 321.64-17.32 322.52-19.7 323.99-21.3 325.47-22.9 327.42-23.75 329.37-24.6 331.52-24.6L331.52-24.6Q333.67-24.6 335.64-23.75 337.62-22.9 339.09-21.3 340.56-19.7 341.44-17.32 342.31-14.95 342.31-11.95L342.31-11.95Q342.31-8.95 341.44-6.63 340.56-4.3 339.09-2.7 337.62-1.1 335.64-0.25 333.67 0.6 331.52 0.6ZM331.52-1.35L331.52-1.35Q333.31-1.35 334.89-2.13 336.47-2.9 337.59-4.3 338.72-5.7 339.37-7.65 340.02-9.6 340.02-11.95L340.02-11.95Q340.02-14.35 339.37-16.3 338.72-18.25 337.59-19.68 336.47-21.1 334.89-21.88 333.31-22.65 331.52-22.65L331.52-22.65Q329.72-22.65 328.17-21.88 326.62-21.1 325.49-19.68 324.37-18.25 323.72-16.3 323.06-14.35 323.06-11.95L323.06-11.95Q323.06-9.6 323.72-7.65 324.37-5.7 325.49-4.3 326.62-2.9 328.17-2.13 329.72-1.35 331.52-1.35ZM355.46 0.6L355.46 0.6Q353.71 0.6 352.56 0.08 351.41-0.45 350.71-1.4 350.01-2.35 349.74-3.7 349.46-5.05 349.46-6.65L349.46-6.65 349.46-22.1 345.71-22.1 345.71-23.8 349.51-24 349.81-30.95 351.71-30.95 351.71-24 358.66-24 358.66-22.1 351.71-22.1 351.71-6.45Q351.71-5.3 351.89-4.38 352.06-3.45 352.51-2.78 352.96-2.1 353.74-1.73 354.51-1.35 355.76-1.35L355.76-1.35Q356.46-1.35 357.29-1.58 358.11-1.8 358.76-2.1L358.76-2.1 359.36-0.3Q358.31 0.1 357.26 0.35 356.21 0.6 355.46 0.6ZM377.06 0L374.76 0 374.76-32.95 377.06-32.95 377.06-18.5 394.71-18.5 394.71-32.95 397.01-32.95 397.01 0 394.71 0 394.71-16.5 377.06-16.5 377.06 0ZM411.71 0.6L411.71 0.6Q410.25 0.6 409 0.2 407.75-0.2 406.81-1 405.86-1.8 405.31-3.05 404.75-4.3 404.75-6L404.75-6Q404.75-10 408.48-12.08 412.21-14.15 420.25-15.05L420.25-15.05Q420.25-16.4 420.06-17.78 419.86-19.15 419.21-20.23 418.56-21.3 417.46-21.98 416.36-22.65 414.56-22.65L414.56-22.65Q412.16-22.65 410.16-21.7 408.16-20.75 406.91-19.85L406.91-19.85 405.91-21.5Q406.56-21.95 407.48-22.5 408.41-23.05 409.56-23.5 410.71-23.95 412.06-24.28 413.41-24.6 414.86-24.6L414.86-24.6Q416.96-24.6 418.41-23.88 419.86-23.15 420.75-21.9 421.66-20.65 422.06-18.98 422.46-17.3 422.46-15.35L422.46-15.35 422.46 0 420.56 0 420.36-3.1 420.21-3.1Q418.36-1.65 416.23-0.53 414.11 0.6 411.71 0.6ZM412.11-1.3L412.11-1.3Q414.21-1.3 416.11-2.3 418-3.3 420.25-5.2L420.25-5.2 420.25-13.35Q416.56-12.9 414-12.25 411.46-11.6 409.91-10.7 408.36-9.8 407.68-8.65 407-7.5 407-6.1L407-6.1Q407-4.8 407.41-3.9 407.81-3 408.5-2.43 409.21-1.85 410.13-1.58 411.06-1.3 412.11-1.3ZM433.2 0L431 0 431-24 432.9-24 433.1-19.55 433.25-19.55Q434.45-21.8 436.18-23.2 437.9-24.6 440.05-24.6L440.05-24.6Q440.75-24.6 441.3-24.5 441.85-24.4 442.45-24.1L442.45-24.1 441.95-22.1Q441.35-22.35 440.9-22.43 440.45-22.5 439.75-22.5L439.75-22.5Q438.15-22.5 436.38-21.13 434.6-19.75 433.2-16.35L433.2-16.35 433.2 0ZM454.3 0.6L454.3 0.6Q449.75 0.6 447.05-2.63 444.35-5.85 444.35-11.95L444.35-11.95Q444.35-14.85 445.2-17.2 446.05-19.55 447.53-21.2 449-22.85 450.93-23.73 452.85-24.6 455-24.6L455-24.6Q457.2-24.6 458.83-23.83 460.45-23.05 462.25-21.65L462.25-21.65 462.15-26.05 462.15-35.95 464.35-35.95 464.35 0 462.45 0 462.25-3.1 462.1-3.1Q460.65-1.65 458.68-0.53 456.7 0.6 454.3 0.6ZM454.6-1.35L454.6-1.35Q456.6-1.35 458.43-2.38 460.25-3.4 462.15-5.3L462.15-5.3 462.15-19.55Q460.25-21.25 458.58-21.95 456.9-22.65 455.15-22.65L455.15-22.65Q453.35-22.65 451.8-21.83 450.25-21 449.13-19.58 448-18.15 447.35-16.18 446.7-14.2 446.7-11.95L446.7-11.95Q446.7-9.55 447.23-7.6 447.75-5.65 448.75-4.28 449.75-2.9 451.23-2.13 452.7-1.35 454.6-1.35ZM482.65 0.6L482.65 0.6Q480.35 0.6 478.32-0.25 476.3-1.1 474.8-2.73 473.3-4.35 472.42-6.68 471.55-9 471.55-11.95L471.55-11.95Q471.55-14.9 472.42-17.25 473.3-19.6 474.77-21.23 476.25-22.85 478.12-23.73 480-24.6 482-24.6L482-24.6Q486.3-24.6 488.75-21.7 491.2-18.8 491.2-13.5L491.2-13.5Q491.2-13.05 491.2-12.6 491.2-12.15 491.1-11.7L491.1-11.7 473.8-11.7Q473.85-9.45 474.5-7.53 475.15-5.6 476.32-4.23 477.5-2.85 479.15-2.08 480.8-1.3 482.85-1.3L482.85-1.3Q484.8-1.3 486.37-1.88 487.95-2.45 489.3-3.45L489.3-3.45 490.2-1.75Q488.75-0.9 487.02-0.15 485.3 0.6 482.65 0.6ZM473.8-13.5L473.8-13.5 489.1-13.5Q489.1-18.15 487.2-20.43 485.3-22.7 482.05-22.7L482.05-22.7Q480.5-22.7 479.1-22.08 477.7-21.45 476.57-20.25 475.45-19.05 474.72-17.35 474-15.65 473.8-13.5ZM499.9 0L497.7 0 497.7-24 499.6-24 499.8-19.55 499.95-19.55Q501.15-21.8 502.87-23.2 504.6-24.6 506.75-24.6L506.75-24.6Q507.45-24.6 508-24.5 508.55-24.4 509.15-24.1L509.15-24.1 508.65-22.1Q508.05-22.35 507.6-22.43 507.15-22.5 506.45-22.5L506.45-22.5Q504.85-22.5 503.07-21.13 501.3-19.75 499.9-16.35L499.9-16.35 499.9 0Z" opacity="1" transform="matrix(1,0,0,1,0,0)" fill="#ffffff" class="slogan-text-1" data-fill-palette-color="secondary" id="text-1"></path></svg></g></svg></g></svg></g></svg></g><g transform="matrix(1,0,0,1,0,0.11985256099373132)"><svg viewBox="0 0 45.76977540253098 47.94102439749346" height="47.94102439749346" width="45.76977540253098"><g><svg version="1.0" xmlns="http://www.w3.org/2000/svg" xmlns:xlink="http://www.w3.org/1999/xlink" x="0" y="0" viewBox="0 0 95.471 100" enable-background="new 0 0 95.471 100" xml:space="preserve" id="icon-0" width="45.76977540253098" height="47.94102439749346" class="icon-icon-0" data-fill-palette-color="accent"><path d="M47.735 0C47.652 2.825 45.997 13.412 27.936 30.934 10.554 47.797 2.439 49.824 0 50 2.439 50.178 10.554 52.204 27.936 69.066 45.997 86.589 47.652 97.177 47.735 100 47.818 97.177 49.474 86.589 67.533 69.066 84.917 52.204 93.031 50.178 95.471 50 93.032 49.824 84.917 47.797 67.533 30.934 49.475 13.412 47.819 2.825 47.735 0" fill="#ffffff" data-fill-palette-color="accent"></path></svg></g></svg></g></svg></g></svg></g><path d="M183.654 98.439L183.654 33.26 2.973 33.26 2.973 213.94 183.654 213.94 183.654 148.761 181.471 148.761 181.471 211.758 5.156 211.758 5.156 35.442 181.471 35.442 181.471 98.439Z" fill="#ffffff" stroke="transparent" data-fill-palette-color="tertiary"></path></svg></g><defs></defs></svg><rect width="395.52" height="247.2" fill="none" stroke="none" visibility="hidden"></rect></g></svg></g></svg>